<?xml version="1.0" encoding="utf-8"?>
<!-- Generator: Adobe Illustrator 16.0.0, SVG Export Plug-In . SVG Version: 6.00 Build 0)  -->
<!DOCTYPE svg PUBLIC "-//W3C//DTD SVG 1.1//EN" "http://www.w3.org/Graphics/SVG/1.1/DTD/svg11.dtd">
<svg version="1.1" id="Layer_1" xmlns="http://www.w3.org/2000/svg" xmlns:xlink="http://www.w3.org/1999/xlink" x="0px" y="0px"
	 width="256px" height="48.102px" viewBox="0 0 256 48.102" enable-background="new 0 0 256 48.102" xml:space="preserve">
<g>
	<linearGradient id="SVGID_1_" gradientUnits="userSpaceOnUse" x1="14.688" y1="49.1023" x2="14.688" y2="1.0985" gradientTransform="matrix(1 0 0 -1 0 49.1011)">
		<stop  offset="0" style="stop-color:#5B6FB5"/>
		<stop  offset="0.675" style="stop-color:#4F7DBF"/>
		<stop  offset="1" style="stop-color:#428BCA"/>
	</linearGradient>
	<path fill="url(#SVGID_1_)" d="M15.143,18.359c-1.305,0-2.4,0.297-3.279,0.893c-0.886,0.596-1.608,1.362-2.162,2.302
		c-0.558,0.944-0.952,1.98-1.182,3.112c-0.229,1.137-0.344,2.252-0.344,3.371c0,1.069,0.115,2.166,0.344,3.276
		c0.229,1.121,0.605,2.129,1.123,3.029c0.523,0.904,1.222,1.641,2.102,2.217c0.884,0.577,1.959,0.862,3.23,0.862
		c1.954,0,3.462-0.548,4.521-1.64c1.053-1.098,1.718-2.564,1.988-4.407h7.892c-0.541,3.952-2.075,6.965-4.608,9.042
		c-2.538,2.072-5.78,3.107-9.738,3.107c-2.227,0-4.272-0.37-6.133-1.12c-1.864-0.746-3.451-1.795-4.753-3.142
		c-1.302-1.345-2.323-2.947-3.05-4.808C0.361,32.594,0,30.551,0,28.318c0-2.301,0.335-4.442,1.008-6.42
		c0.671-1.979,1.66-3.685,2.968-5.128c1.304-1.444,2.897-2.559,4.776-3.371c1.882-0.806,4.036-1.209,6.453-1.209
		c1.766,0,3.464,0.235,5.098,0.694c1.63,0.457,3.091,1.161,4.377,2.1c1.285,0.941,2.332,2.114,3.139,3.515s1.269,3.061,1.383,4.983
		h-8.007C20.653,20.068,18.638,18.359,15.143,18.359z"/>

	<linearGradient id="SVGID_2_" gradientUnits="userSpaceOnUse" x1="46.3384" y1="49.1003" x2="46.3384" y2="1.0981" gradientTransform="matrix(1 0 0 -1 0 49.1011)">
		<stop  offset="0" style="stop-color:#5B6FB5"/>
		<stop  offset="0.675" style="stop-color:#4F7DBF"/>
		<stop  offset="1" style="stop-color:#428BCA"/>
	</linearGradient>
	<path fill="url(#SVGID_2_)" d="M40.864,35.379c0.361,0.637,0.834,1.152,1.411,1.556c0.574,0.403,1.238,0.704,1.988,0.896
		c0.748,0.188,1.525,0.282,2.332,0.282c0.577,0,1.182-0.062,1.813-0.202c0.636-0.131,1.21-0.342,1.73-0.632
		c0.52-0.287,0.952-0.671,1.296-1.154c0.347-0.473,0.518-1.078,0.518-1.814c0-1.228-0.815-2.146-2.449-2.761
		c-1.631-0.614-3.907-1.233-6.825-1.847c-1.19-0.264-2.353-0.587-3.485-0.948c-1.134-0.365-2.143-0.849-3.023-1.443
		c-0.884-0.596-1.594-1.341-2.133-2.245c-0.539-0.902-0.807-2.005-0.807-3.312c0-1.918,0.374-3.495,1.123-4.722
		c0.75-1.228,1.74-2.198,2.968-2.911c1.228-0.708,2.609-1.209,4.148-1.496c1.536-0.291,3.11-0.437,4.723-0.437
		c1.611,0,3.178,0.155,4.695,0.461c1.517,0.307,2.871,0.827,4.059,1.554c1.188,0.728,2.178,1.698,2.964,2.907
		c0.788,1.208,1.259,2.739,1.413,4.58h-7.776c-0.114-1.575-0.712-2.64-1.783-3.198c-1.076-0.552-2.347-0.834-3.802-0.834
		c-0.462,0-0.961,0.028-1.498,0.083c-0.541,0.061-1.031,0.183-1.47,0.375c-0.44,0.192-0.815,0.473-1.123,0.836
		c-0.308,0.364-0.462,0.856-0.462,1.47c0,0.729,0.27,1.324,0.806,1.787c0.539,0.457,1.242,0.834,2.102,1.121
		c0.865,0.292,1.854,0.55,2.967,0.779c1.114,0.228,2.248,0.483,3.399,0.748c1.19,0.265,2.35,0.596,3.484,0.981
		c1.132,0.38,2.141,0.891,3.024,1.522c0.883,0.639,1.594,1.426,2.132,2.358c0.539,0.947,0.807,2.11,0.807,3.488
		c0,1.959-0.396,3.6-1.182,4.927c-0.785,1.327-1.814,2.387-3.08,3.197c-1.269,0.807-2.718,1.369-4.35,1.701
		c-1.631,0.324-3.293,0.483-4.981,0.483c-1.729,0-3.419-0.168-5.067-0.516c-1.653-0.348-3.121-0.924-4.407-1.729
		c-1.287-0.807-2.346-1.87-3.169-3.197c-0.825-1.322-1.277-2.986-1.352-4.983h7.774C40.313,33.991,40.499,34.746,40.864,35.379z"/>

	<linearGradient id="SVGID_3_" gradientUnits="userSpaceOnUse" x1="77.2729" y1="49.1003" x2="77.2729" y2="1.0981" gradientTransform="matrix(1 0 0 -1 0 49.1011)">
		<stop  offset="0" style="stop-color:#5B6FB5"/>
		<stop  offset="0.675" style="stop-color:#4F7DBF"/>
		<stop  offset="1" style="stop-color:#428BCA"/>
	</linearGradient>
	<path fill="url(#SVGID_3_)" d="M71.794,35.379c0.361,0.637,0.834,1.152,1.411,1.556c0.577,0.403,1.238,0.704,1.987,0.896
		c0.748,0.188,1.525,0.282,2.332,0.282c0.577,0,1.182-0.062,1.814-0.202c0.638-0.131,1.209-0.342,1.732-0.632
		c0.518-0.287,0.949-0.671,1.296-1.154c0.344-0.473,0.518-1.078,0.518-1.814c0-1.228-0.815-2.146-2.452-2.761
		c-1.631-0.614-3.907-1.233-6.825-1.847c-1.19-0.264-2.353-0.587-3.484-0.948c-1.133-0.365-2.141-0.849-3.024-1.443
		c-0.884-0.596-1.594-1.341-2.13-2.245c-0.541-0.902-0.807-2.005-0.807-3.312c0-1.918,0.37-3.495,1.123-4.722
		c0.748-1.228,1.737-2.198,2.965-2.911c1.23-0.708,2.611-1.209,4.148-1.496c1.535-0.291,3.111-0.437,4.722-0.437
		c1.612,0,3.179,0.155,4.695,0.461c1.516,0.307,2.871,0.827,4.062,1.554c1.188,0.728,2.177,1.698,2.962,2.907
		c0.788,1.208,1.259,2.739,1.413,4.58h-7.774c-0.115-1.575-0.712-2.64-1.787-3.198c-1.075-0.552-2.346-0.834-3.801-0.834
		c-0.462,0-0.961,0.028-1.498,0.083c-0.539,0.061-1.029,0.183-1.47,0.375c-0.438,0.192-0.816,0.473-1.123,0.836
		c-0.308,0.364-0.461,0.856-0.461,1.47c0,0.729,0.269,1.324,0.806,1.787c0.541,0.457,1.243,0.834,2.103,1.121
		c0.866,0.292,1.855,0.55,2.967,0.779c1.114,0.228,2.25,0.483,3.399,0.748c1.19,0.265,2.353,0.596,3.484,0.981
		c1.132,0.38,2.141,0.891,3.024,1.522c0.883,0.639,1.593,1.426,2.135,2.358c0.537,0.947,0.807,2.11,0.807,3.488
		c0,1.959-0.396,3.6-1.182,4.927c-0.788,1.327-1.814,2.387-3.082,3.197c-1.269,0.807-2.717,1.369-4.35,1.701
		c-1.632,0.324-3.293,0.483-4.979,0.483c-1.731,0-3.422-0.168-5.069-0.516c-1.653-0.348-3.12-0.924-4.407-1.729
		c-1.288-0.807-2.346-1.87-3.169-3.197c-0.825-1.322-1.277-2.986-1.35-4.983h7.772C71.245,33.991,71.427,34.746,71.794,35.379z"/>

	<linearGradient id="SVGID_4_" gradientUnits="userSpaceOnUse" x1="107.0156" y1="49.1013" x2="107.0156" y2="1.0988" gradientTransform="matrix(1 0 0 -1 0 49.1011)">
		<stop  offset="0" style="stop-color:#5B6FB5"/>
		<stop  offset="0.675" style="stop-color:#4F7DBF"/>
		<stop  offset="1" style="stop-color:#428BCA"/>
	</linearGradient>
	<path fill="url(#SVGID_4_)" d="M103.443,13.001l-0.921,4.495h0.115c1.23-1.729,2.784-3.023,4.666-3.885
		c1.88-0.868,3.858-1.299,5.932-1.299c2.804,0,4.886,0.614,6.251,1.843c1.359,1.232,2.044,3.168,2.044,5.822
		c0,0.651-0.078,1.496-0.229,2.532c-0.155,1.038-0.366,2.135-0.638,3.286l-3.629,16.991h-4.896l3.802-17.395
		c0.04-0.31,0.096-0.665,0.173-1.068c0.075-0.404,0.153-0.826,0.229-1.263c0.08-0.438,0.148-0.865,0.202-1.269
		c0.059-0.402,0.086-0.739,0.086-1.007c0-1.42-0.499-2.466-1.497-3.138c-0.998-0.673-2.226-1.009-3.686-1.009
		c-1.343,0-2.677,0.327-4.004,0.978c-1.325,0.651-2.447,1.476-3.368,2.474c-0.883,0.77-1.575,1.702-2.072,2.795
		c-0.499,1.096-0.902,2.234-1.209,3.425l-3.457,16.477H92.5l6.22-29.779h4.722L103.443,13.001L103.443,13.001z"/>

	<linearGradient id="SVGID_5_" gradientUnits="userSpaceOnUse" x1="139.3008" y1="49.1023" x2="139.3008" y2="1.0977" gradientTransform="matrix(1 0 0 -1 0 49.1011)">
		<stop  offset="0" style="stop-color:#5B6FB5"/>
		<stop  offset="0.675" style="stop-color:#4F7DBF"/>
		<stop  offset="1" style="stop-color:#428BCA"/>
	</linearGradient>
	<path fill="url(#SVGID_5_)" d="M130.23,31.953c0,1.147,0.211,2.179,0.633,3.084c0.424,0.899,0.998,1.65,1.729,2.246
		c0.729,0.595,1.554,1.054,2.476,1.383c0.922,0.323,1.881,0.488,2.879,0.488c2.189,0,3.993-0.488,5.414-1.467
		c1.423-0.98,2.478-2.392,3.169-4.233h4.895c-0.384,1.648-1,3.098-1.844,4.344c-0.846,1.252-1.863,2.288-3.051,3.113
		c-1.19,0.83-2.518,1.449-3.976,1.871c-1.458,0.421-2.994,0.638-4.607,0.638c-2.456,0-4.503-0.376-6.134-1.125
		c-1.634-0.749-2.93-1.706-3.888-2.878c-0.961-1.171-1.634-2.456-2.016-3.863c-0.384-1.396-0.577-2.751-0.577-4.059
		c0-2.842,0.413-5.443,1.24-7.805c0.826-2.36,1.939-4.387,3.342-6.074c1.399-1.693,3.032-2.995,4.896-3.919
		c1.858-0.919,3.809-1.384,5.846-1.384c4.378,0,7.574,1.153,9.59,3.46c2.017,2.302,3.023,5.545,3.023,9.729
		c0,0.769-0.053,1.5-0.17,2.188c-0.115,0.693-0.211,1.251-0.287,1.673h-22.408C130.289,30.208,130.23,31.07,130.23,31.953z
		 M148.174,21.959c-0.21-1.017-0.595-1.919-1.149-2.707c-0.556-0.788-1.297-1.42-2.221-1.903c-0.92-0.478-2.053-0.716-3.399-0.716
		c-1.419,0-2.696,0.221-3.827,0.659c-1.135,0.44-2.125,1.048-2.969,1.815c-0.843,0.769-1.554,1.662-2.131,2.681
		c-0.577,1.018-1.039,2.1-1.384,3.253h17.281C148.451,24.002,148.385,22.976,148.174,21.959z"/>

	<linearGradient id="SVGID_6_" gradientUnits="userSpaceOnUse" x1="168.0459" y1="49.1003" x2="168.0459" y2="1.0985" gradientTransform="matrix(1 0 0 -1 0 49.1011)">
		<stop  offset="0" style="stop-color:#5B6FB5"/>
		<stop  offset="0.675" style="stop-color:#4F7DBF"/>
		<stop  offset="1" style="stop-color:#428BCA"/>
	</linearGradient>
	<path fill="url(#SVGID_6_)" d="M159.204,13.001h5.646l4.493,10.833l8.868-10.833h5.936L171.358,27.4l7.604,15.381h-5.586
		L167.96,30.57l-10.14,12.211h-5.874l13.881-15.784L159.204,13.001z"/>

	<linearGradient id="SVGID_7_" gradientUnits="userSpaceOnUse" x1="193.6738" y1="49.1023" x2="193.6738" y2="1.099" gradientTransform="matrix(1 0 0 -1 0 49.1011)">
		<stop  offset="0" style="stop-color:#5B6FB5"/>
		<stop  offset="0.675" style="stop-color:#4F7DBF"/>
		<stop  offset="1" style="stop-color:#428BCA"/>
	</linearGradient>
	<path fill="url(#SVGID_7_)" d="M202.058,13.001l-0.926,4.322H195.2l-3.687,17.512c-0.038,0.347-0.078,0.67-0.115,0.979
		c-0.038,0.305-0.06,0.632-0.06,0.975c0,0.769,0.299,1.298,0.895,1.584c0.595,0.291,1.277,0.437,2.049,0.437
		c0.499,0,0.977-0.053,1.438-0.146c0.461-0.099,0.921-0.221,1.382-0.375l-0.863,4.491c-0.575,0.08-1.149,0.146-1.728,0.202
		c-0.579,0.06-1.149,0.088-1.729,0.088c-0.921,0-1.785-0.069-2.592-0.201c-0.807-0.136-1.507-0.384-2.104-0.75
		c-0.595-0.361-1.076-0.853-1.438-1.467c-0.365-0.613-0.552-1.401-0.552-2.362c0-0.422,0.028-0.825,0.088-1.209
		c0.056-0.384,0.125-0.806,0.201-1.266l3.918-18.492h-5.012l0.922-4.317h5.011l1.847-8.813h4.896l-1.848,8.813h5.938V13.001z"/>
</g>
<g>

	<linearGradient id="SVGID_8_" gradientUnits="userSpaceOnUse" x1="225.5234" y1="49.0994" x2="225.5234" y2="1.0994" gradientTransform="matrix(1 0 0 -1 0 49.1011)">
		<stop  offset="0" style="stop-color:#5B6FB5"/>
		<stop  offset="0.675" style="stop-color:#4F7DBF"/>
		<stop  offset="1" style="stop-color:#428BCA"/>
	</linearGradient>
	<path fill="url(#SVGID_8_)" d="M231.709,3.111c-0.966,0-1.726,0.469-2.276,1.42c-0.55,0.947-0.932,1.992-1.138,3.126l-1.914,9.36
		c-0.277,1.212-0.682,2.239-1.217,3.085c-0.539,0.841-1.095,1.536-1.68,2.066c-0.589,0.535-1.166,0.947-1.735,1.242
		c-0.566,0.291-1.013,0.474-1.319,0.546l-0.049,0.148c0.242,0.04,0.548,0.143,0.93,0.314c0.379,0.168,0.749,0.455,1.114,0.852
		c0.361,0.394,0.672,0.896,0.931,1.5c0.257,0.604,0.387,1.369,0.387,2.301c0,0.31-0.033,0.619-0.103,0.929
		c-0.071,0.312-0.139,0.656-0.206,1.04l-1.914,9.31c-0.104,0.591-0.154,1.168-0.154,1.758c0,0.793,0.104,1.453,0.311,1.992
		c0.208,0.535,0.67,0.798,1.397,0.798h2.587l-0.672,3.103h-3.621c-0.521,0-1.045-0.104-1.577-0.31
		c-0.539-0.207-1.009-0.497-1.424-0.877c-0.418-0.374-0.749-0.862-1.01-1.447c-0.258-0.591-0.387-1.262-0.387-2.016
		c0-0.314,0.016-0.652,0.049-1.014c0.033-0.359,0.086-0.73,0.157-1.11l1.962-9.36c0.068-0.381,0.122-0.75,0.155-1.116
		c0.031-0.361,0.048-0.693,0.048-1.008c0-1.205-0.318-2.161-0.954-2.869c-0.637-0.707-1.409-1.063-2.302-1.063l0.774-3.516
		c0.55,0,1.112-0.145,1.68-0.439c0.569-0.292,1.105-0.694,1.603-1.214c0.499-0.517,0.952-1.153,1.349-1.913
		c0.396-0.762,0.697-1.603,0.904-2.536l1.965-9.418c0.206-1.101,0.569-2.072,1.085-2.922c0.518-0.841,1.104-1.55,1.76-2.117
		c0.652-0.569,1.344-1.003,2.07-1.293c0.724-0.292,1.413-0.44,2.064-0.44h3.624l-0.671,3.103h-2.583V3.111L231.709,3.111z"/>

	<linearGradient id="SVGID_9_" gradientUnits="userSpaceOnUse" x1="234.7988" y1="49.1013" x2="234.7988" y2="1.0982" gradientTransform="matrix(1 0 0 -1 0 49.1011)">
		<stop  offset="0" style="stop-color:#5B6FB5"/>
		<stop  offset="0.675" style="stop-color:#4F7DBF"/>
		<stop  offset="1" style="stop-color:#428BCA"/>
	</linearGradient>
	<path fill="url(#SVGID_9_)" d="M239.591,8.576l-6.139,31.602h-3.442l6.133-31.602H239.591z"/>

	<linearGradient id="SVGID_10_" gradientUnits="userSpaceOnUse" x1="241.5293" y1="49.1023" x2="241.5293" y2="1.0982" gradientTransform="matrix(1 0 0 -1 0 49.1011)">
		<stop  offset="0" style="stop-color:#5B6FB5"/>
		<stop  offset="0.675" style="stop-color:#4F7DBF"/>
		<stop  offset="1" style="stop-color:#428BCA"/>
	</linearGradient>
	<path fill="url(#SVGID_10_)" d="M245.541,10.341l-5.562,28.065h-2.461l5.583-28.065H245.541L245.541,10.341z"/>

	<linearGradient id="SVGID_11_" gradientUnits="userSpaceOnUse" x1="247.7314" y1="49.1013" x2="247.7314" y2="1.098" gradientTransform="matrix(1 0 0 -1 0 49.1011)">
		<stop  offset="0" style="stop-color:#5B6FB5"/>
		<stop  offset="0.675" style="stop-color:#4F7DBF"/>
		<stop  offset="1" style="stop-color:#428BCA"/>
	</linearGradient>
	<path fill="url(#SVGID_11_)" d="M251.053,11.661l-4.968,25.423h-1.673l4.974-25.423H251.053z"/>

	<linearGradient id="SVGID_12_" gradientUnits="userSpaceOnUse" x1="252.8125" y1="49.1003" x2="252.8125" y2="1.0991" gradientTransform="matrix(1 0 0 -1 0 49.1011)">
		<stop  offset="0" style="stop-color:#5B6FB5"/>
		<stop  offset="0.675" style="stop-color:#4F7DBF"/>
		<stop  offset="1" style="stop-color:#428BCA"/>
	</linearGradient>
	<path fill="url(#SVGID_12_)" d="M255.475,13.569l-4.391,21.613h-0.931l4.372-21.613H255.475z"/>
</g>
</svg>
