<?xml version="1.0" encoding="utf-8"?>
<!-- Generator: Adobe Illustrator 16.0.0, SVG Export Plug-In . SVG Version: 6.00 Build 0)  -->
<!DOCTYPE svg PUBLIC "-//W3C//DTD SVG 1.1//EN" "http://www.w3.org/Graphics/SVG/1.1/DTD/svg11.dtd">
<svg version="1.1" id="Layer_1" xmlns="http://www.w3.org/2000/svg" xmlns:xlink="http://www.w3.org/1999/xlink" x="0px" y="0px"
	 width="39.39px" height="48px" viewBox="0 0 39.39 48" enable-background="new 0 0 39.39 48" xml:space="preserve">
<g>

	<linearGradient id="SVGID_1_" gradientUnits="userSpaceOnUse" x1="9.439" y1="794" x2="9.439" y2="746" gradientTransform="matrix(1 0 0 -1 0 794)">
		<stop  offset="0" style="stop-color:#5C70B5"/>
		<stop  offset="0.675" style="stop-color:#507DBF"/>
		<stop  offset="1" style="stop-color:#428BCA"/>
	</linearGradient>
	<path fill="url(#SVGID_1_)" d="M15.624,3.109c-0.966,0-1.726,0.469-2.276,1.42c-0.55,0.947-0.932,1.992-1.138,3.126l-1.914,9.36
		c-0.277,1.212-0.681,2.239-1.216,3.085c-0.539,0.841-1.096,1.536-1.68,2.066c-0.589,0.535-1.166,0.947-1.735,1.242
		C5.097,23.7,4.65,23.883,4.345,23.956l-0.049,0.148c0.242,0.04,0.548,0.143,0.93,0.314c0.378,0.169,0.749,0.454,1.114,0.852
		c0.362,0.394,0.671,0.896,0.931,1.5c0.257,0.605,0.387,1.37,0.387,2.301c0,0.31-0.033,0.619-0.103,0.929
		c-0.072,0.312-0.139,0.657-0.207,1.04l-1.914,9.31C5.33,40.94,5.28,41.517,5.28,42.108c0,0.792,0.104,1.453,0.31,1.992
		c0.209,0.535,0.671,0.797,1.398,0.797h2.587L8.903,48H5.282c-0.521,0-1.045-0.104-1.578-0.31c-0.539-0.207-1.008-0.497-1.424-0.876
		c-0.417-0.374-0.748-0.862-1.009-1.448c-0.257-0.59-0.386-1.261-0.386-2.015c0-0.314,0.016-0.652,0.049-1.014
		c0.033-0.36,0.086-0.73,0.157-1.11l1.962-9.36c0.068-0.381,0.122-0.75,0.155-1.116c0.032-0.362,0.048-0.694,0.048-1.008
		c0-1.206-0.318-2.162-0.954-2.869C1.665,26.166,0.893,25.809,0,25.809l0.774-3.515c0.549,0,1.113-0.145,1.68-0.439
		c0.569-0.292,1.105-0.694,1.602-1.214c0.499-0.517,0.952-1.153,1.349-1.913c0.396-0.762,0.698-1.603,0.904-2.536l1.965-9.418
		C8.48,5.672,8.843,4.701,9.359,3.851c0.517-0.841,1.104-1.55,1.76-2.117c0.652-0.569,1.344-1.003,2.07-1.293
		C13.913,0.148,14.602,0,15.254,0h3.624l-0.671,3.103h-2.583V3.109L15.624,3.109z"/>

	<linearGradient id="SVGID_2_" gradientUnits="userSpaceOnUse" x1="18.7153" y1="794.002" x2="18.7153" y2="745.9988" gradientTransform="matrix(1 0 0 -1 0 794)">
		<stop  offset="0" style="stop-color:#5C70B5"/>
		<stop  offset="0.675" style="stop-color:#507DBF"/>
		<stop  offset="1" style="stop-color:#428BCA"/>
	</linearGradient>
	<path fill="url(#SVGID_2_)" d="M23.505,8.574l-6.139,31.602h-3.442l6.133-31.602H23.505z"/>

	<linearGradient id="SVGID_3_" gradientUnits="userSpaceOnUse" x1="25.4453" y1="794.0029" x2="25.4453" y2="745.9988" gradientTransform="matrix(1 0 0 -1 0 794)">
		<stop  offset="0" style="stop-color:#5C70B5"/>
		<stop  offset="0.675" style="stop-color:#507DBF"/>
		<stop  offset="1" style="stop-color:#428BCA"/>
	</linearGradient>
	<path fill="url(#SVGID_3_)" d="M29.456,10.339l-5.562,28.065h-2.46l5.583-28.065H29.456L29.456,10.339z"/>

	<linearGradient id="SVGID_4_" gradientUnits="userSpaceOnUse" x1="31.6475" y1="794.001" x2="31.6475" y2="745.9996" gradientTransform="matrix(1 0 0 -1 0 794)">
		<stop  offset="0" style="stop-color:#5C70B5"/>
		<stop  offset="0.675" style="stop-color:#507DBF"/>
		<stop  offset="1" style="stop-color:#428BCA"/>
	</linearGradient>
	<path fill="url(#SVGID_4_)" d="M34.967,11.66L30,37.083h-1.673l4.974-25.423H34.967z"/>

	<linearGradient id="SVGID_5_" gradientUnits="userSpaceOnUse" x1="36.729" y1="794.001" x2="36.729" y2="745.9998" gradientTransform="matrix(1 0 0 -1 0 794)">
		<stop  offset="0" style="stop-color:#5C70B5"/>
		<stop  offset="0.675" style="stop-color:#507DBF"/>
		<stop  offset="1" style="stop-color:#428BCA"/>
	</linearGradient>
	<path fill="url(#SVGID_5_)" d="M39.39,13.567L34.999,35.18h-0.931l4.373-21.613H39.39z"/>
</g>
</svg>
