<?xml version="1.0" encoding="utf-8"?>
<!-- Generator: Adobe Illustrator 16.0.0, SVG Export Plug-In . SVG Version: 6.00 Build 0)  -->
<!DOCTYPE svg PUBLIC "-//W3C//DTD SVG 1.1//EN" "http://www.w3.org/Graphics/SVG/1.1/DTD/svg11.dtd">
<svg version="1.1" id="Layer_1" xmlns="http://www.w3.org/2000/svg" xmlns:xlink="http://www.w3.org/1999/xlink" x="0px" y="0px"
	 width="39.391px" height="48px" viewBox="0 0 39.391 48" enable-background="new 0 0 39.391 48" xml:space="preserve">
<g>
	
		<linearGradient id="SVGID_1_" gradientUnits="userSpaceOnUse" x1="10.8245" y1="1.2427" x2="10.8245" y2="42.7573" gradientTransform="matrix(1 0 0 1 0 2)">
		<stop  offset="0" style="stop-color:#5C70B5"/>
		<stop  offset="0.675" style="stop-color:#507DBF"/>
		<stop  offset="1" style="stop-color:#428BCA"/>
	</linearGradient>
	<path fill="url(#SVGID_1_)" d="M16.174,5.932c-0.835,0-1.493,0.406-1.968,1.228c-0.476,0.819-0.807,1.723-0.985,2.704l-1.655,8.095
		c-0.239,1.048-0.589,1.936-1.052,2.668c-0.466,0.728-0.947,1.328-1.453,1.787c-0.509,0.463-1.008,0.819-1.501,1.075
		c-0.491,0.252-0.877,0.41-1.141,0.474L6.376,24.09c0.209,0.035,0.475,0.124,0.805,0.271c0.327,0.146,0.647,0.393,0.963,0.736
		c0.313,0.342,0.581,0.775,0.806,1.298c0.222,0.523,0.334,1.186,0.334,1.989c0,0.27-0.029,0.536-0.089,0.805
		c-0.062,0.271-0.121,0.568-0.179,0.899l-1.655,8.052c-0.09,0.51-0.133,1.01-0.133,1.521c0,0.686,0.089,1.257,0.268,1.723
		c0.181,0.463,0.581,0.689,1.209,0.689h2.237l-0.581,2.684H7.229c-0.45,0-0.903-0.089-1.365-0.269
		c-0.466-0.179-0.872-0.429-1.231-0.757c-0.361-0.324-0.647-0.745-0.873-1.252c-0.222-0.511-0.334-1.091-0.334-1.742
		c0-0.272,0.015-0.564,0.043-0.878c0.028-0.312,0.075-0.631,0.135-0.96l1.698-8.095c0.058-0.33,0.105-0.649,0.133-0.966
		c0.028-0.313,0.042-0.601,0.042-0.872c0-1.043-0.274-1.869-0.825-2.481s-1.218-0.921-1.991-0.921l0.67-3.04
		c0.475,0,0.963-0.125,1.453-0.379c0.492-0.253,0.956-0.6,1.386-1.05c0.431-0.447,0.822-0.997,1.166-1.654
		c0.342-0.659,0.604-1.387,0.782-2.193l1.699-8.146c0.178-0.953,0.492-1.793,0.938-2.528c0.447-0.728,0.955-1.341,1.522-1.831
		c0.564-0.492,1.162-0.867,1.791-1.118c0.626-0.253,1.222-0.381,1.786-0.381h3.134l-0.58,2.684h-2.234V5.932L16.174,5.932z"/>
	
		<linearGradient id="SVGID_2_" gradientUnits="userSpaceOnUse" x1="18.8464" y1="1.2407" x2="18.8464" y2="42.7592" gradientTransform="matrix(1 0 0 1 0 2)">
		<stop  offset="0" style="stop-color:#5C70B5"/>
		<stop  offset="0.675" style="stop-color:#507DBF"/>
		<stop  offset="1" style="stop-color:#428BCA"/>
	</linearGradient>
	<path fill="url(#SVGID_2_)" d="M22.99,10.658L17.68,37.99h-2.977l5.305-27.332H22.99z"/>
	
		<linearGradient id="SVGID_3_" gradientUnits="userSpaceOnUse" x1="24.6677" y1="1.2397" x2="24.6677" y2="42.7595" gradientTransform="matrix(1 0 0 1 0 2)">
		<stop  offset="0" style="stop-color:#5C70B5"/>
		<stop  offset="0.675" style="stop-color:#507DBF"/>
		<stop  offset="1" style="stop-color:#428BCA"/>
	</linearGradient>
	<path fill="url(#SVGID_3_)" d="M28.137,12.185l-4.811,24.273h-2.128l4.829-24.273H28.137L28.137,12.185z"/>
	
		<linearGradient id="SVGID_4_" gradientUnits="userSpaceOnUse" x1="30.032" y1="1.2417" x2="30.032" y2="42.7582" gradientTransform="matrix(1 0 0 1 0 2)">
		<stop  offset="0" style="stop-color:#5C70B5"/>
		<stop  offset="0.675" style="stop-color:#507DBF"/>
		<stop  offset="1" style="stop-color:#428BCA"/>
	</linearGradient>
	<path fill="url(#SVGID_4_)" d="M32.903,13.328l-4.296,21.988h-1.446l4.302-21.988H32.903z"/>
	
		<linearGradient id="SVGID_5_" gradientUnits="userSpaceOnUse" x1="34.4275" y1="1.2422" x2="34.4275" y2="42.7574" gradientTransform="matrix(1 0 0 1 0 2)">
		<stop  offset="0" style="stop-color:#5C70B5"/>
		<stop  offset="0.675" style="stop-color:#507DBF"/>
		<stop  offset="1" style="stop-color:#428BCA"/>
	</linearGradient>
	<path fill="url(#SVGID_5_)" d="M36.729,14.977l-3.798,18.692h-0.806l3.782-18.692H36.729z"/>
</g>
</svg>
