<?xml version="1.0" encoding="utf-8"?>
<!-- Generator: Adobe Illustrator 16.0.0, SVG Export Plug-In . SVG Version: 6.00 Build 0)  -->
<!DOCTYPE svg PUBLIC "-//W3C//DTD SVG 1.1//EN" "http://www.w3.org/Graphics/SVG/1.1/DTD/svg11.dtd">
<svg version="1.1" id="Layer_1" xmlns="http://www.w3.org/2000/svg" xmlns:xlink="http://www.w3.org/1999/xlink" x="0px" y="0px"
	 width="516.664px" height="94.565px" viewBox="0 -5.787 516.664 94.565" enable-background="new 0 -5.787 516.664 94.565"
	 xml:space="preserve">
<g>
	
		<linearGradient id="SVGID_1_" gradientUnits="userSpaceOnUse" x1="28.7007" y1="64.4846" x2="28.7007" y2="1.3079" gradientTransform="matrix(1 0 0 -1 0 80.981)">
		<stop  offset="0" style="stop-color:#428BCA"/>
		<stop  offset="0.325" style="stop-color:#4F7DBF"/>
		<stop  offset="1" style="stop-color:#5B6FB5"/>
	</linearGradient>
	<path fill="url(#SVGID_1_)" d="M49.826,31.647c-1.024-2.318-2.8-4.221-5.333-5.716c-2.527-1.495-5.412-2.247-8.66-2.247
		c-3.854,0-7.411,0.774-10.659,2.321c-3.261,1.547-6.059,3.669-8.413,6.375c-2.363,2.696-4.201,5.831-5.527,9.395
		c-1.329,3.562-1.986,7.369-1.986,11.402c0,2.735,0.426,5.285,1.287,7.646c0.856,2.364,2.121,4.404,3.782,6.126
		c1.671,1.714,3.709,3.06,6.103,4.056c2.393,0.98,5.141,1.481,8.214,1.481c3.856,0,7.242-0.732,10.147-2.195
		c2.916-1.453,5.432-3.333,7.575-5.643l5.528,4.744c-3.081,3.158-6.551,5.655-10.406,7.504c-3.85,1.843-8.341,2.778-13.481,2.778
		c-4.284,0-8.128-0.625-11.558-1.858c-3.426-1.254-6.372-3.009-8.831-5.266c-2.465-2.283-4.345-4.996-5.653-8.164
		C0.649,61.223,0,57.709,0,53.864c0-5.14,0.87-9.97,2.603-14.513c1.745-4.536,4.182-8.496,7.326-11.882
		c3.144-3.376,6.939-6.051,11.388-8.027c4.451-1.965,9.376-2.945,14.766-2.945c4.453,0,8.623,0.814,12.52,2.434
		c3.898,1.631,6.823,4.188,8.797,7.701L49.826,31.647z"/>
	
		<linearGradient id="SVGID_2_" gradientUnits="userSpaceOnUse" x1="85.0708" y1="64.4885" x2="85.0708" y2="1.3088" gradientTransform="matrix(1 0 0 -1 0 80.981)">
		<stop  offset="0" style="stop-color:#428BCA"/>
		<stop  offset="0.325" style="stop-color:#4F7DBF"/>
		<stop  offset="1" style="stop-color:#5B6FB5"/>
	</linearGradient>
	<path fill="url(#SVGID_2_)" d="M104.653,31.26c-1.199-2.225-2.998-4.043-5.391-5.465c-2.405-1.399-5.267-2.111-8.602-2.111
		c-1.546,0-3.144,0.169-4.816,0.513c-1.674,0.344-3.208,0.899-4.629,1.671c-1.411,0.763-2.561,1.777-3.458,3.021
		c-0.9,1.232-1.349,2.759-1.349,4.556c0,1.63,0.271,2.947,0.824,3.972c0.566,1.034,1.349,1.911,2.385,2.633
		c1.023,0.73,2.267,1.378,3.72,1.932c1.451,0.556,3.122,1.099,5.006,1.603c5.915,1.711,10.406,3.883,13.489,6.486
		c3.082,2.617,4.62,6.322,4.62,11.11c0,3.262-0.733,6.056-2.186,8.41c-1.451,2.353-3.29,4.275-5.518,5.779
		c-2.225,1.495-4.712,2.59-7.451,3.272c-2.736,0.677-5.431,1.031-8.087,1.031c-5.058,0-9.781-0.935-14.191-2.778
		c-4.411-1.851-7.858-4.692-10.336-8.525l7.452-4.884c1.454,2.484,3.637,4.607,6.541,6.365c2.918,1.754,6.292,2.632,10.147,2.632
		c1.883,0,3.722-0.199,5.52-0.585c1.798-0.384,3.406-0.984,4.816-1.8c1.41-0.812,2.549-1.888,3.406-3.218
		c0.855-1.337,1.286-2.905,1.286-4.7c0-3.174-1.265-5.601-3.793-7.278c-2.531-1.667-6.145-3.278-10.846-4.822
		c-1.798-0.598-3.594-1.287-5.394-2.062c-1.798-0.764-3.426-1.78-4.879-3.016c-1.463-1.249-2.633-2.753-3.534-4.518
		c-0.895-1.758-1.346-3.875-1.346-6.365c0-3.082,0.7-5.747,2.121-7.972c1.41-2.237,3.208-4.054,5.39-5.475
		c2.186-1.423,4.642-2.468,7.378-3.156c2.739-0.69,5.475-1.023,8.225-1.023c4.618,0,8.747,0.896,12.394,2.695
		c3.635,1.798,6.27,4.2,7.89,7.19L104.653,31.26z"/>
	
		<linearGradient id="SVGID_3_" gradientUnits="userSpaceOnUse" x1="142.084" y1="64.4885" x2="142.084" y2="1.3088" gradientTransform="matrix(1 0 0 -1 0 80.981)">
		<stop  offset="0" style="stop-color:#428BCA"/>
		<stop  offset="0.325" style="stop-color:#4F7DBF"/>
		<stop  offset="1" style="stop-color:#5B6FB5"/>
	</linearGradient>
	<path fill="url(#SVGID_3_)" d="M161.669,31.26c-1.205-2.225-2.999-4.043-5.393-5.465c-2.401-1.399-5.265-2.111-8.602-2.111
		c-1.547,0-3.142,0.169-4.815,0.513c-1.671,0.344-3.206,0.899-4.63,1.671c-1.41,0.763-2.56,1.777-3.46,3.021
		c-0.896,1.232-1.348,2.759-1.348,4.556c0,1.63,0.273,2.947,0.825,3.972c0.567,1.034,1.351,1.911,2.382,2.633
		c1.025,0.73,2.271,1.378,3.72,1.932c1.455,0.556,3.125,1.099,5.007,1.603c5.913,1.711,10.407,3.883,13.492,6.486
		c3.081,2.617,4.616,6.322,4.616,11.11c0,3.262-0.73,6.056-2.182,8.41c-1.451,2.353-3.293,4.275-5.518,5.779
		c-2.224,1.495-4.712,2.59-7.451,3.272c-2.735,0.677-5.434,1.031-8.087,1.031c-5.059,0-9.782-0.935-14.19-2.778
		c-4.411-1.851-7.86-4.692-10.336-8.525l7.451-4.884c1.452,2.484,3.637,4.607,6.541,6.365c2.915,1.754,6.292,2.632,10.147,2.632
		c1.882,0,3.721-0.199,5.518-0.585c1.797-0.384,3.408-0.984,4.815-1.8c1.412-0.812,2.551-1.888,3.409-3.218
		c0.855-1.337,1.285-2.905,1.285-4.7c0-3.174-1.265-5.601-3.795-7.278c-2.527-1.667-6.143-3.278-10.844-4.822
		c-1.799-0.598-3.598-1.287-5.394-2.062c-1.797-0.764-3.426-1.78-4.879-3.016c-1.464-1.249-2.633-2.753-3.532-4.518
		c-0.898-1.758-1.348-3.875-1.348-6.365c0-3.082,0.699-5.747,2.122-7.972c1.409-2.237,3.207-4.054,5.391-5.475
		c2.182-1.423,4.641-2.468,7.376-3.156c2.739-0.69,5.476-1.023,8.226-1.023c4.616,0,8.745,0.896,12.392,2.695
		c3.634,1.798,6.269,4.2,7.889,7.19L161.669,31.26z"/>
	
		<linearGradient id="SVGID_4_" gradientUnits="userSpaceOnUse" x1="207.1763" y1="64.4866" x2="207.1763" y2="2.8557" gradientTransform="matrix(1 0 0 -1 0 80.981)">
		<stop  offset="0" style="stop-color:#428BCA"/>
		<stop  offset="0.325" style="stop-color:#4F7DBF"/>
		<stop  offset="1" style="stop-color:#5B6FB5"/>
	</linearGradient>
	<path fill="url(#SVGID_4_)" d="M196.33,18.031c-0.18,1.628-0.386,3.426-0.647,5.401c-0.251,1.965-0.513,3.594-0.763,4.87h0.25
		c2.319-3.678,5.308-6.562,8.955-8.663c3.647-2.101,7.533-3.144,11.652-3.144c6.532,0,11.618,1.65,15.267,4.942
		c3.648,3.29,5.475,7.763,5.475,13.42c0,1.021-0.062,2.056-0.187,3.08c-0.135,1.023-0.282,2.128-0.451,3.343l-6.645,36.845h-8.64
		l5.915-33.247c0.509-2.652,0.761-5.186,0.761-7.588c0-4.188-0.981-7.502-2.944-9.947c-1.978-2.447-5.451-3.659-10.411-3.659
		c-2.309,0-4.618,0.471-6.929,1.412c-2.308,0.951-4.472,2.393-6.487,4.369c-2.007,1.974-3.783,4.431-5.331,7.386
		c-1.537,2.947-2.654,6.437-3.333,10.459l-5.391,30.815h-8.612l8.225-46.866c0.334-1.621,0.699-3.729,1.087-6.29
		c0.386-2.571,0.668-4.88,0.835-6.938L196.33,18.031L196.33,18.031z"/>
	
		<linearGradient id="SVGID_5_" gradientUnits="userSpaceOnUse" x1="281.6025" y1="64.4866" x2="281.6025" y2="1.3079" gradientTransform="matrix(1 0 0 -1 0 80.981)">
		<stop  offset="0" style="stop-color:#428BCA"/>
		<stop  offset="0.325" style="stop-color:#4F7DBF"/>
		<stop  offset="1" style="stop-color:#5B6FB5"/>
	</linearGradient>
	<path fill="url(#SVGID_5_)" d="M260.668,50.391c-0.082,0.524-0.144,1.004-0.188,1.487c-0.052,0.468-0.07,0.915-0.07,1.355
		c0,2.845,0.489,5.427,1.479,7.759c0.981,2.315,2.361,4.343,4.116,6.06c1.752,1.722,3.801,3.06,6.164,4.015
		c2.346,0.938,4.894,1.418,7.63,1.418c4.702,0,8.818-1.058,12.332-3.159c3.508-2.091,6.331-4.553,8.483-7.373l5.395,5.13
		c-3.515,4.19-7.591,7.323-12.208,9.435c-4.618,2.102-9.551,3.156-14.773,3.156c-3.848,0-7.443-0.605-10.781-1.798
		c-3.351-1.2-6.229-2.917-8.661-5.142c-2.446-2.227-4.369-4.985-5.779-8.277c-1.422-3.301-2.123-7.041-2.123-11.24
		c0-4.885,0.901-9.541,2.696-14.005c1.799-4.441,4.255-8.338,7.38-11.683c3.118-3.334,6.818-6.008,11.039-8.026
		c4.239-2.005,8.8-3.007,13.685-3.007c8.218,0,14.445,2.171,18.689,6.541c4.222,4.368,6.354,10.019,6.354,16.948
		c0,1.034-0.087,2.592-0.275,4.695c-0.166,2.098-0.459,4-0.897,5.712H260.668L260.668,50.391z M302.659,43.974
		c0.09-0.688,0.146-1.438,0.188-2.251c0.042-0.821,0.065-1.559,0.065-2.24c0-4.625-1.4-8.422-4.241-11.37
		c-2.826-2.958-6.981-4.431-12.458-4.431c-3.155,0-6.082,0.534-8.778,1.61c-2.715,1.067-5.097,2.55-7.21,4.43
		c-2.09,1.884-3.866,4.035-5.33,6.479c-1.438,2.444-2.467,5.033-3.071,7.773H302.659L302.659,43.974z"/>
	
		<linearGradient id="SVGID_6_" gradientUnits="userSpaceOnUse" x1="346.6973" y1="62.9504" x2="346.6973" y2="2.8557" gradientTransform="matrix(1 0 0 -1 0 80.981)">
		<stop  offset="0" style="stop-color:#428BCA"/>
		<stop  offset="0.325" style="stop-color:#4F7DBF"/>
		<stop  offset="1" style="stop-color:#5B6FB5"/>
	</linearGradient>
	<path fill="url(#SVGID_6_)" d="M359.675,78.125l-12.854-25.558l-24.017,25.558h-10.652l30.822-31.715L327.95,18.031h9.235
		l11.703,23.626l21.945-23.626h10.411l-28.506,29.407l16.946,30.687L359.675,78.125L359.675,78.125z"/>
	
		<linearGradient id="SVGID_7_" gradientUnits="userSpaceOnUse" x1="401.1309" y1="79.8997" x2="401.1309" y2="2.0813" gradientTransform="matrix(1 0 0 -1 0 80.981)">
		<stop  offset="0" style="stop-color:#428BCA"/>
		<stop  offset="0.325" style="stop-color:#4F7DBF"/>
		<stop  offset="1" style="stop-color:#5B6FB5"/>
	</linearGradient>
	<path fill="url(#SVGID_7_)" d="M419.111,25.229h-16.303l-6.287,35.28c-0.272,1.547-0.398,2.913-0.398,4.113
		c0,2.834,0.688,4.724,2.048,5.666c1.377,0.945,3.173,1.424,5.394,1.424c1.211,0,2.527-0.192,3.992-0.555
		c1.464-0.369,2.569-0.869,3.343-1.507l-1.025,7.45c-1.125,0.598-2.548,1.046-4.305,1.339c-1.754,0.312-3.613,0.46-5.6,0.46
		c-1.441,0-2.927-0.174-4.435-0.521c-1.48-0.336-2.858-0.963-4.094-1.862c-1.25-0.896-2.278-2.11-3.095-3.655
		c-0.815-1.55-1.209-3.514-1.209-5.904c0-1.204,0.123-2.571,0.377-4.109l6.685-37.618h-12.45l1.417-7.198h12.181l2.97-16.949h8.59
		l-2.943,16.949h16.553L419.111,25.229z"/>
</g>
<g>
	
		<linearGradient id="SVGID_8_" gradientUnits="userSpaceOnUse" x1="459.877" y1="85.7659" x2="459.877" y2="-7.7976" gradientTransform="matrix(1 0 0 -1 0 80.981)">
		<stop  offset="0" style="stop-color:#428BCA"/>
		<stop  offset="0.325" style="stop-color:#4F7DBF"/>
		<stop  offset="1" style="stop-color:#5B6FB5"/>
	</linearGradient>
	<path fill="url(#SVGID_8_)" d="M443.445,38.831c2.732,0,4.979-1.009,6.746-3.059c1.748-2.033,2.987-4.904,3.669-8.631l3.29-18.755
		c0.402-2.453,1.082-4.524,2.042-6.207c0.938-1.694,2.023-3.045,3.208-4.07c1.217-1.009,2.533-1.744,4-2.212
		c1.491-0.455,2.959-0.681,4.425-0.681h6.645L476.538,0.9h-5.081c-1.239,0-2.328,0.269-3.262,0.797
		c-0.91,0.533-1.642,1.216-2.199,2.049c-0.585,0.859-1.01,1.795-1.314,2.853c-0.331,1.04-0.583,2.077-0.812,3.049l-3.26,18.755
		c-0.48,2.529-1.264,4.653-2.325,6.383c-1.037,1.718-2.172,3.085-3.36,4.095c-1.183,1.025-2.353,1.769-3.488,2.226
		c-1.113,0.454-1.998,0.706-2.63,0.781v0.203c0.479,0.075,1.162,0.278,1.971,0.632c0.812,0.354,1.621,0.938,2.404,1.745
		c0.805,0.809,1.489,1.833,2.071,3.057c0.559,1.229,0.831,2.797,0.831,4.691c0,0.985-0.099,2.11-0.325,3.378l-3.262,18.752
		c-0.203,1.052-0.303,2.173-0.303,3.365c0,1.463,0.303,2.738,0.935,3.787c0.631,1.062,1.895,1.594,3.795,1.594h5.058l-1.041,5.687
		h-6.646c-2.604,0-4.803-0.685-6.624-2.061c-1.845-1.379-2.754-3.777-2.754-7.215c0-0.571,0.049-1.164,0.1-1.792
		c0.076-0.633,0.177-1.341,0.329-2.098l3.263-18.759c0.2-1.341,0.326-2.601,0.326-3.791c0-2.528-0.56-4.476-1.643-5.856
		c-1.088-1.371-2.757-2.055-5.005-2.055L443.445,38.831z"/>
	
		<linearGradient id="SVGID_9_" gradientUnits="userSpaceOnUse" x1="476.7012" y1="66.8958" x2="476.7012" y2="11.0803" gradientTransform="matrix(1 0 0 -1 0 80.981)">
		<stop  offset="0" style="stop-color:#428BCA"/>
		<stop  offset="0.325" style="stop-color:#4F7DBF"/>
		<stop  offset="1" style="stop-color:#5B6FB5"/>
	</linearGradient>
	<path fill="url(#SVGID_9_)" d="M484.046,14.086l-8.699,55.815h-5.989l8.697-55.815H484.046z"/>
	
		<linearGradient id="SVGID_10_" gradientUnits="userSpaceOnUse" x1="488.4141" y1="63.8245" x2="488.4141" y2="14.1536" gradientTransform="matrix(1 0 0 -1 0 80.981)">
		<stop  offset="0" style="stop-color:#428BCA"/>
		<stop  offset="0.325" style="stop-color:#4F7DBF"/>
		<stop  offset="1" style="stop-color:#5B6FB5"/>
	</linearGradient>
	<path fill="url(#SVGID_10_)" d="M494.406,17.156l-7.708,49.671h-4.274l7.735-49.671H494.406z"/>
	
		<linearGradient id="SVGID_11_" gradientUnits="userSpaceOnUse" x1="499.3604" y1="61.5276" x2="499.3604" y2="16.4524" gradientTransform="matrix(1 0 0 -1 0 80.981)">
		<stop  offset="0" style="stop-color:#428BCA"/>
		<stop  offset="0.325" style="stop-color:#4F7DBF"/>
		<stop  offset="1" style="stop-color:#5B6FB5"/>
	</linearGradient>
	<path fill="url(#SVGID_11_)" d="M504.316,19.454l-7.002,45.074h-2.908l7.003-45.074H504.316z"/>
	
		<linearGradient id="SVGID_12_" gradientUnits="userSpaceOnUse" x1="508.1953" y1="58.2141" x2="508.1953" y2="19.762" gradientTransform="matrix(1 0 0 -1 0 80.981)">
		<stop  offset="0" style="stop-color:#428BCA"/>
		<stop  offset="0.325" style="stop-color:#4F7DBF"/>
		<stop  offset="1" style="stop-color:#5B6FB5"/>
	</linearGradient>
	<path fill="url(#SVGID_12_)" d="M512,22.767l-5.989,38.452h-1.618l5.965-38.452H512z"/>
</g>
</svg>
